<svg width="24" height="24" viewBox="0 0 24 24" fill="none" xmlns="http://www.w3.org/2000/svg">
<g clip-path="url(#clip0_27_267)">
<path d="M4.94302 5.606L1.02402 9.525C0.387649 10.1919 0.0325928 11.0782 0.0325928 12C0.0325928 12.9218 0.387649 13.8081 1.02402 14.475L4.94302 18.394C5.08139 18.5373 5.24691 18.6515 5.42992 18.7302C5.61292 18.8088 5.80975 18.8502 6.00892 18.8519C6.20809 18.8536 6.40561 18.8157 6.58996 18.7402C6.7743 18.6648 6.94178 18.5534 7.08262 18.4126C7.22346 18.2718 7.33484 18.1043 7.41026 17.9199C7.48568 17.7356 7.52363 17.5381 7.5219 17.3389C7.52017 17.1397 7.47879 16.9429 7.40018 16.7599C7.32156 16.5769 7.20729 16.4114 7.06402 16.273L4.28502 13.492L22.535 13.469C22.9328 13.469 23.3144 13.311 23.5957 13.0297C23.877 12.7484 24.035 12.3668 24.035 11.969C24.035 11.5712 23.877 11.1896 23.5957 10.9083C23.3144 10.627 22.9328 10.469 22.535 10.469L4.30002 10.492L7.06402 7.727C7.33726 7.4441 7.48845 7.0652 7.48504 6.6719C7.48162 6.27861 7.32386 5.90239 7.04575 5.62428C6.76764 5.34616 6.39142 5.18841 5.99813 5.18499C5.60483 5.18158 5.22593 5.33277 4.94302 5.606Z" fill="black"/>
</g>
<defs>
<clipPath id="clip0_27_267">
<rect width="24" height="24" fill="white"/>
</clipPath>
</defs>
</svg>
