<svg width="24" height="24" viewBox="0 0 24 24" fill="none" xmlns="http://www.w3.org/2000/svg">
<g clip-path="url(#clip0_135_190)">
<path d="M11 12H17V14H11V12ZM21 2V21C21 22.654 19.654 24 18 24H6C4.346 24 3 22.654 3 21V2H8.171C8.584 0.836 9.696 0 11 0H13C14.304 0 15.416 0.836 15.829 2H21ZM19 4H14V3C14 2.448 13.551 2 13 2H11C10.449 2 10 2.448 10 3V4H5V21C5 21.552 5.449 22 6 22H18C18.551 22 19 21.552 19 21V4ZM11 10H17V8H11V10ZM11 18H17V16H11V18ZM7 10H9V8H7V10ZM7 14H9V12H7V14ZM7 18H9V16H7V18Z" fill="#474747"/>
</g>
<defs>
<clipPath id="clip0_135_190">
<rect width="24" height="24" fill="white"/>
</clipPath>
</defs>
</svg>
