<svg width="24" height="24" viewBox="0 0 24 24" fill="none" xmlns="http://www.w3.org/2000/svg">
<path d="M15.001 6C15.001 2.691 12.31 0 9.001 0C5.692 0 3.001 2.691 3.001 6C3.001 9.309 5.692 12 9.001 12C12.31 12 15.001 9.309 15.001 6ZM9.001 10C6.795 10 5.001 8.206 5.001 6C5.001 3.794 6.795 2 9.001 2C11.207 2 13.001 3.794 13.001 6C13.001 8.206 11.207 10 9.001 10ZM8.993 14.938C9.061 15.486 8.673 15.985 8.124 16.054C4.633 16.49 2 19.475 2 23C2 23.552 1.552 24 1 24C0.448 24 0 23.552 0 23C0 18.469 3.386 14.63 7.876 14.07C8.418 14.001 8.923 14.39 8.992 14.939L8.993 14.938ZM22.697 19.133L21.723 18.571C21.889 18.074 22.001 17.552 22.001 16.999C22.001 16.446 21.89 15.924 21.723 15.427L22.697 14.865C23.175 14.589 23.339 13.977 23.063 13.499C22.786 13.02 22.176 12.855 21.697 13.133L20.724 13.695C20.019 12.901 19.08 12.32 18.001 12.101V11C18.001 10.448 17.553 10 17.001 10C16.449 10 16.001 10.448 16.001 11V12.101C14.922 12.321 13.983 12.902 13.278 13.695L12.305 13.133C11.825 12.856 11.215 13.02 10.939 13.499C10.663 13.978 10.827 14.589 11.305 14.865L12.279 15.427C12.113 15.924 12.001 16.446 12.001 16.999C12.001 17.552 12.112 18.074 12.279 18.571L11.305 19.133C10.827 19.409 10.663 20.021 10.939 20.499C11.125 20.82 11.46 20.999 11.806 20.999C11.975 20.999 12.147 20.956 12.305 20.865L13.278 20.303C13.983 21.097 14.922 21.678 16.001 21.897V22.998C16.001 23.55 16.449 23.998 17.001 23.998C17.553 23.998 18.001 23.55 18.001 22.998V21.897C19.08 21.677 20.019 21.096 20.724 20.303L21.697 20.865C21.855 20.956 22.027 20.999 22.196 20.999C22.542 20.999 22.878 20.82 23.063 20.499C23.339 20.02 23.175 19.409 22.697 19.133ZM17.001 19.999C15.347 19.999 14.001 18.653 14.001 16.999C14.001 15.345 15.347 13.999 17.001 13.999C18.655 13.999 20.001 15.345 20.001 16.999C20.001 18.653 18.655 19.999 17.001 19.999Z" fill="#999999"/>
</svg>
