<svg width="120" height="120" viewBox="0 0 120 120" fill="none" xmlns="http://www.w3.org/2000/svg">
<path d="M119.205 62.1543C119.205 94.1008 92.5215 120 59.6027 120C26.6838 120 0 94.1008 0 62.1543C0 30.2059 26.6838 4.30664 59.6027 4.30664V62.1543L116.534 44.9778C118.27 50.4041 119.205 56.1743 119.205 62.1543Z" fill="#2E7758"/>
<path d="M120 40.6711L63.0686 57.8476V0C89.8259 0 112.461 17.1093 120 40.6711Z" fill="#52BF92"/>
<path d="M75.1724 32.2829V31.0544C75.3854 30.8715 75.7131 30.5952 76.1556 30.2255C76.5979 29.8558 76.9298 29.5755 77.1509 29.3847C77.3721 29.1938 77.6444 28.9415 77.9681 28.6274C78.2917 28.3134 78.5315 28.049 78.6871 27.8342C79.0885 27.2778 79.2892 26.7847 79.2892 26.3554C79.2892 25.5127 78.8878 25.0911 78.0849 25.0911C77.6917 25.0911 77.3845 25.2184 77.1632 25.4728C76.942 25.7273 76.8272 26.077 76.8191 26.5223H75.1477C75.1558 25.5921 75.4366 24.8845 75.9896 24.3994C76.5426 23.9145 77.2654 23.6719 78.1585 23.6719C79.0515 23.6719 79.7519 23.9185 80.26 24.4113C80.7679 24.9044 81.0218 25.5246 81.0218 26.2718C81.0218 26.8285 80.8743 27.3453 80.5795 27.8223C80.432 28.0768 80.2886 28.3015 80.1495 28.4962C80.0101 28.691 79.8114 28.9156 79.5534 29.1699C79.2953 29.4245 79.0926 29.6232 78.9452 29.7663C78.7977 29.9095 78.5745 30.1104 78.2754 30.3687C77.9764 30.6271 77.7694 30.8081 77.6549 30.9113H81.2309V32.2829H75.1724Z" fill="white"/>
<path d="M82.3113 28.0538C82.3113 25.1716 83.4153 23.7305 85.6231 23.7305C87.831 23.7305 88.9352 25.1716 88.9352 28.0538C88.9352 30.9361 87.831 32.3773 85.6231 32.3773C83.4153 32.3772 82.3113 30.9361 82.3113 28.0538ZM86.3544 25.4359C86.1495 25.3327 85.9079 25.2808 85.6292 25.2808C85.3507 25.2808 85.1089 25.3326 84.9041 25.4359C84.6993 25.5394 84.5418 25.6705 84.4312 25.8294C84.3205 25.9885 84.2324 26.1973 84.1669 26.4556C84.1013 26.7141 84.0582 26.9625 84.0378 27.201C84.0173 27.4396 84.0072 27.7218 84.0072 28.0478C84.0072 28.3739 84.0174 28.6561 84.0378 28.8945C84.0582 29.1331 84.1013 29.3816 84.1669 29.6399C84.2323 29.8984 84.3205 30.1092 84.4312 30.2721C84.5418 30.4351 84.6993 30.5684 84.9041 30.6716C85.1089 30.7749 85.3506 30.8267 85.6292 30.8267C85.9078 30.8267 86.1494 30.775 86.3544 30.6716C86.5592 30.5684 86.7169 30.4351 86.8275 30.2721C86.9381 30.1092 87.0261 29.8984 87.0918 29.6399C87.1572 29.3816 87.2002 29.1331 87.2207 28.8945C87.2409 28.656 87.2515 28.3739 87.2515 28.0478C87.2515 27.7218 87.2409 27.4395 87.2207 27.201C87.2001 26.9624 87.1572 26.7141 87.0918 26.4556C87.0261 26.1973 86.9381 25.9886 86.8275 25.8294C86.7169 25.6705 86.5592 25.5394 86.3544 25.4359Z" fill="white"/>
<path d="M90.5868 27.2487C90.2221 26.9069 90.0398 26.4378 90.0398 25.8415C90.0398 25.2451 90.2221 24.7781 90.5868 24.4401C90.9511 24.1022 91.4181 23.9332 91.9876 23.9332C92.5569 23.9332 93.0239 24.1022 93.3887 24.4401C93.753 24.7781 93.9355 25.2452 93.9355 25.8415C93.9355 26.4378 93.7552 26.9069 93.3948 27.2487C93.034 27.5906 92.5672 27.7616 91.9938 27.7616C91.4204 27.7616 90.9512 27.5906 90.5868 27.2487ZM91.0477 32.4011L95.8647 24.0524H97.5483L92.7188 32.4011H91.0477ZM92.6821 25.8473C92.6821 25.2391 92.4505 24.935 91.9876 24.935C91.5248 24.935 91.2934 25.2391 91.2934 25.8473C91.2934 26.4557 91.5248 26.7598 91.9876 26.7598C92.4505 26.7598 92.6821 26.4556 92.6821 25.8473ZM96.6146 32.5203C96.041 32.5203 95.5719 32.3515 95.2074 32.0134C94.8429 31.6756 94.6606 31.2065 94.6606 30.606C94.6606 30.0058 94.8429 29.5367 95.2074 29.1987C95.5719 28.8609 96.0389 28.6918 96.6084 28.6918C97.1777 28.6918 97.6448 28.8608 98.0093 29.1987C98.3738 29.5367 98.5563 30.0058 98.5563 30.606C98.5563 31.2064 98.376 31.6755 98.0154 32.0134C97.6548 32.3515 97.1878 32.5203 96.6146 32.5203ZM97.2903 30.6061C97.2903 29.9978 97.0609 29.6937 96.6023 29.6937C96.1434 29.6937 95.914 29.9978 95.914 30.6061C95.914 31.2144 96.1435 31.5185 96.6023 31.5185C97.0609 31.5185 97.2903 31.2144 97.2903 30.6061Z" fill="white"/>
<path d="M28.345 75.294C28.345 74.3343 28.7264 73.5216 29.4891 72.8566C30.2517 72.1915 31.3395 71.859 32.7517 71.859C34.164 71.859 35.2483 72.1946 36.0052 72.8651C36.7619 73.5362 37.1404 74.3516 37.1404 75.3115C37.1404 76.5607 36.5506 77.4862 35.3707 78.0875C36.7651 78.6661 37.4623 79.7243 37.4623 81.2625C37.4623 82.4656 37.0213 83.4227 36.1394 84.1339C35.2573 84.8453 34.1311 85.2009 32.7607 85.2009C31.39 85.2009 30.2607 84.8454 29.373 84.1339C28.4851 83.4227 28.0413 82.4656 28.0413 81.2625C28.0413 80.5109 28.2259 79.8632 28.5954 79.3194C28.9647 78.7758 29.4772 78.3653 30.1329 78.0875C28.9409 77.4745 28.345 76.5434 28.345 75.294ZM34.3696 79.6838C33.9763 79.3254 33.4339 79.1458 32.7428 79.1458C32.0515 79.1458 31.4973 79.3194 31.0803 79.6664C30.6631 80.0134 30.4546 80.4992 30.4546 81.1238C30.4546 81.7484 30.6572 82.2487 31.0624 82.6245C31.4674 83.0005 32.0248 83.1884 32.7339 83.1884C33.4429 83.1884 33.9912 82.9974 34.3786 82.6159C34.7657 82.2341 34.9596 81.7398 34.9596 81.1324C34.9595 80.5252 34.7628 80.0424 34.3696 79.6838ZM34.7093 75.6152C34.7093 75.0772 34.5332 74.6522 34.1818 74.3399C33.8302 74.0276 33.3564 73.8714 32.7607 73.8714C32.1646 73.8714 31.688 74.0276 31.3306 74.3399C30.973 74.6522 30.7942 75.0772 30.7942 75.6152C30.7942 76.1531 30.9789 76.5841 31.3484 76.9078C31.7177 77.2316 32.1856 77.3935 32.7517 77.3935C33.3176 77.3935 33.7855 77.2316 34.155 76.9078C34.5244 76.5841 34.7093 76.1531 34.7093 75.6152Z" fill="white"/>
<path d="M39.4456 78.5971C39.4456 74.4044 41.0514 72.3079 44.2633 72.3079C47.4751 72.3079 49.0811 74.4044 49.0811 78.5971C49.0811 82.7902 47.475 84.8865 44.2633 84.8865C41.0514 84.8865 39.4456 82.7902 39.4456 78.5971ZM45.327 74.7889C45.0289 74.6387 44.6772 74.5634 44.2722 74.5634C43.8669 74.5634 43.5153 74.6387 43.2175 74.7889C42.9194 74.9394 42.6902 75.1302 42.5293 75.3615C42.3684 75.593 42.2402 75.8966 42.1449 76.2724C42.0494 76.6484 41.9868 77.0098 41.9571 77.3568C41.9273 77.7038 41.9124 78.1144 41.9124 78.5887C41.9124 79.063 41.9273 79.4733 41.9571 79.8203C41.9868 80.1674 42.0494 80.5291 42.1449 80.9047C42.2401 81.2809 42.3684 81.5874 42.5293 81.8243C42.6902 82.0614 42.9195 82.2553 43.2175 82.4056C43.5153 82.556 43.8669 82.6311 44.2722 82.6311C44.6772 82.6311 45.0289 82.556 45.327 82.4056C45.6248 82.2553 45.8543 82.0615 46.0153 81.8243C46.1761 81.5874 46.3041 81.2809 46.3996 80.9047C46.4949 80.5291 46.5574 80.1674 46.5872 79.8203C46.6168 79.4733 46.632 79.063 46.632 78.5887C46.632 78.1144 46.6168 77.7038 46.5872 77.3568C46.5574 77.0098 46.4948 76.6484 46.3996 76.2724C46.3041 75.8966 46.1761 75.5931 46.0153 75.3615C45.8544 75.1302 45.6248 74.9393 45.327 74.7889Z" fill="white"/>
<path d="M51.485 77.4265C50.9545 76.9294 50.6895 76.2467 50.6895 75.3792C50.6895 74.5118 50.9545 73.8324 51.485 73.3406C52.0151 72.8491 52.6944 72.6032 53.5229 72.6032C54.3511 72.6032 55.0303 72.8491 55.5608 73.3406C56.091 73.8324 56.3563 74.5118 56.3563 75.3792C56.3563 76.2467 56.094 76.9294 55.5698 77.4265C55.0452 77.924 54.3659 78.1725 53.5318 78.1725C52.6975 78.1725 52.0151 77.924 51.485 77.4265ZM52.1554 84.9216L59.1631 72.7766H61.6122L54.5867 84.9216H52.1554ZM54.533 75.388C54.533 74.5031 54.1962 74.0607 53.523 74.0607C52.8495 74.0607 52.513 74.5031 52.513 75.388C52.513 76.2728 52.8496 76.7152 53.523 76.7152C54.1961 76.7152 54.533 76.2728 54.533 75.388ZM60.2535 85.0951C59.4192 85.0951 58.7369 84.8496 58.2067 84.3577C57.6763 83.8662 57.4111 83.1839 57.4111 82.3105C57.4111 81.4372 57.6763 80.7549 58.2067 80.2631C58.7369 79.7716 59.4162 79.5257 60.2445 79.5257C61.0729 79.5257 61.7521 79.7716 62.2824 80.2631C62.8127 80.7549 63.0779 81.4372 63.0779 82.3105C63.0779 83.1839 62.8157 83.8662 62.2914 84.3577C61.7669 84.8496 61.0877 85.0951 60.2535 85.0951ZM61.2369 82.3105C61.2369 81.4256 60.903 80.9832 60.2356 80.9832C59.5681 80.9832 59.2347 81.4256 59.2347 82.3105C59.2347 83.1953 59.5682 83.6377 60.2356 83.6377C60.903 83.6377 61.2369 83.1953 61.2369 82.3105Z" fill="white"/>
</svg>
