<svg width="20" height="20" viewBox="0 0 20 20" fill="none" xmlns="http://www.w3.org/2000/svg">
<path d="M20 18.75C20 19.4417 19.4417 20 18.75 20H1.25C0.558333 20 0 19.4417 0 18.75C0 18.0583 0.558333 17.5 1.25 17.5H18.75C19.4417 17.5 20 18.0583 20 18.75ZM2.49167 9.78333C1.69167 8.98333 1.45 7.78333 1.88333 6.73333C2.31667 5.68333 3.33333 5 4.46667 5H5.83333V2.91667C5.83333 1.30833 7.14167 0 8.75 0H11.25C12.8583 0 14.1667 1.30833 14.1667 2.91667V5H15.5333C16.675 5 17.6833 5.69167 18.1167 6.73333C18.55 7.78333 18.3083 8.98333 17.5083 9.78333L12.5333 14.775C11.8333 15.475 10.9167 15.8167 10 15.8167C9.08333 15.8167 8.16667 15.4667 7.46667 14.775L2.49167 9.78333ZM4.25833 8.01667L9.24167 13.0167C9.65833 13.4333 10.3417 13.4333 10.7667 13.0167L15.7417 8.01667C15.8417 7.91667 15.8583 7.80833 15.8083 7.68333C15.7583 7.55833 15.6667 7.49167 15.525 7.49167H12.9167C12.225 7.49167 11.6667 6.93333 11.6667 6.24167V2.91667C11.6667 2.69167 11.475 2.5 11.25 2.5H8.75C8.51667 2.5 8.33333 2.68333 8.33333 2.91667V6.25C8.33333 6.94167 7.775 7.5 7.08333 7.5H4.46667C4.33333 7.5 4.24167 7.56667 4.19167 7.69167C4.14167 7.81667 4.15833 7.925 4.25833 8.025V8.01667Z" fill="white"/>
</svg>
