<svg width="37" height="41" viewBox="0 0 37 41" fill="none" xmlns="http://www.w3.org/2000/svg">
<ellipse cx="23.5" cy="7" rx="6.5" ry="6" fill="#F84F31"/>
<path d="M22.27 5.29V3.7H25.04V11H23.26V5.29H22.27Z" fill="white"/>
<path d="M29.2875 34.223L28.9947 33.9647C28.1643 33.2244 27.4373 32.3758 26.8333 31.4416C26.1732 30.1524 25.7779 28.7441 25.6708 27.2997V23.0458C25.6765 20.7773 24.8536 18.5848 23.3568 16.8802C21.8599 15.1757 19.7921 14.0764 17.5419 13.7889V12.678C17.5419 12.3731 17.4208 12.0807 17.2052 11.8651C16.9896 11.6496 16.6972 11.5284 16.3923 11.5284C16.0874 11.5284 15.795 11.6496 15.5794 11.8651C15.3638 12.0807 15.2427 12.3731 15.2427 12.678V13.8061C13.0127 14.1143 10.9699 15.2202 9.49269 16.9191C8.0155 18.6179 7.20403 20.7946 7.20856 23.0458V27.2997C7.1014 28.7441 6.70614 30.1524 6.04607 31.4416C5.45266 32.3737 4.73734 33.2222 3.91912 33.9647L3.62634 34.223V36.6514H29.2875V34.223Z" fill="black"/>
<path d="M14.1923 37.5555C14.2678 38.1014 14.5382 38.6015 14.9537 38.9634C15.3692 39.3254 15.9016 39.5248 16.4527 39.5248C17.0037 39.5248 17.5361 39.3254 17.9516 38.9634C18.3671 38.6015 18.6376 38.1014 18.7131 37.5555H14.1923Z" fill="black"/>
</svg>
