<svg width="30" height="30" viewBox="0 0 30 30" fill="none" xmlns="http://www.w3.org/2000/svg">
<circle cx="15" cy="15" r="13.5" stroke="#52BF92" stroke-width="3"/>
<g clip-path="url(#clip0_145_171)">
<path d="M22.3333 11.6668H19.1273L19.6607 7.75677C19.6725 7.67001 19.6671 7.58177 19.6448 7.49709C19.6225 7.41241 19.5838 7.33295 19.5308 7.26325C19.4778 7.19354 19.4116 7.13495 19.336 7.09083C19.2603 7.04671 19.1768 7.01792 19.09 7.0061C19.0032 6.99428 18.915 6.99967 18.8303 7.02195C18.7456 7.04423 18.6662 7.08298 18.5965 7.13597C18.5268 7.18896 18.4682 7.25516 18.4241 7.33079C18.3799 7.40643 18.3512 7.49001 18.3393 7.57677L17.782 11.6668H13.1273L13.6607 7.75677C13.6725 7.67001 13.6671 7.58177 13.6448 7.49709C13.6225 7.41241 13.5838 7.33295 13.5308 7.26325C13.4778 7.19354 13.4116 7.13495 13.336 7.09083C13.2603 7.04671 13.1768 7.01792 13.09 7.0061C13.0032 6.99428 12.915 6.99967 12.8303 7.02195C12.7456 7.04423 12.6662 7.08298 12.5965 7.13597C12.5268 7.18896 12.4682 7.25516 12.4241 7.33079C12.3799 7.40643 12.3512 7.49001 12.3393 7.57677L11.782 11.6668H8.33333C8.15652 11.6668 7.98695 11.737 7.86193 11.862C7.7369 11.9871 7.66667 12.1566 7.66667 12.3334C7.66667 12.5102 7.7369 12.6798 7.86193 12.8048C7.98695 12.9299 8.15652 13.0001 8.33333 13.0001H11.6L11.0547 17.0001H7.66667C7.48986 17.0001 7.32029 17.0703 7.19526 17.1954C7.07024 17.3204 7 17.49 7 17.6668C7 17.8436 7.07024 18.0131 7.19526 18.1382C7.32029 18.2632 7.48986 18.3334 7.66667 18.3334H10.8727L10.3393 22.2434C10.3155 22.4187 10.3622 22.5962 10.4692 22.737C10.5762 22.8777 10.7348 22.9702 10.91 22.9941C11.0852 23.018 11.2627 22.9713 11.4035 22.8642C11.5443 22.7572 11.6368 22.5987 11.6607 22.4234L12.218 18.3334H16.8727L16.3393 22.2434C16.3155 22.4187 16.3622 22.5962 16.4692 22.737C16.5762 22.8777 16.7348 22.9702 16.91 22.9941C17.0852 23.018 17.2627 22.9713 17.4035 22.8642C17.5443 22.7572 17.6368 22.5987 17.6607 22.4234L18.218 18.3334H21.6667C21.8435 18.3334 22.013 18.2632 22.1381 18.1382C22.2631 18.0131 22.3333 17.8436 22.3333 17.6668C22.3333 17.49 22.2631 17.3204 22.1381 17.1954C22.013 17.0703 21.8435 17.0001 21.6667 17.0001H18.4L18.9453 13.0001H22.3333C22.5101 13.0001 22.6797 12.9299 22.8047 12.8048C22.9298 12.6798 23 12.5102 23 12.3334C23 12.1566 22.9298 11.9871 22.8047 11.862C22.6797 11.737 22.5101 11.6668 22.3333 11.6668ZM17.0547 17.0001H12.4L12.9453 13.0001H17.6L17.0547 17.0001Z" fill="black"/>
</g>
<defs>
<clipPath id="clip0_145_171">
<rect width="16" height="16" fill="white" transform="translate(7 7)"/>
</clipPath>
</defs>
</svg>
