<svg width="30" height="30" viewBox="0 0 30 30" fill="none" xmlns="http://www.w3.org/2000/svg">
<path d="M27.5001 17.0791H17.0834V27.4958C17.0834 28.0483 16.8639 28.5782 16.4732 28.9689C16.0825 29.3596 15.5526 29.5791 15.0001 29.5791C14.4475 29.5791 13.9176 29.3596 13.5269 28.9689C13.1362 28.5782 12.9167 28.0483 12.9167 27.4958V17.0791H2.50008C1.94755 17.0791 1.41764 16.8596 1.02694 16.4689C0.636242 16.0782 0.416748 15.5483 0.416748 14.9958C0.416748 14.4433 0.636242 13.9134 1.02694 13.5227C1.41764 13.132 1.94755 12.9125 2.50008 12.9125H12.9167V2.49581C12.9167 1.94327 13.1362 1.41337 13.5269 1.02267C13.9176 0.631968 14.4475 0.412476 15.0001 0.412476C15.5526 0.412476 16.0825 0.631968 16.4732 1.02267C16.8639 1.41337 17.0834 1.94327 17.0834 2.49581V12.9125H27.5001C28.0526 12.9125 28.5825 13.132 28.9732 13.5227C29.3639 13.9134 29.5834 14.4433 29.5834 14.9958C29.5834 15.5483 29.3639 16.0782 28.9732 16.4689C28.5825 16.8596 28.0526 17.0791 27.5001 17.0791Z" fill="white"/>
</svg>
