<svg width="181" height="34" viewBox="0 0 181 34" fill="none" xmlns="http://www.w3.org/2000/svg">
<rect width="181" height="34" fill="#0E46A3"/>
<path d="M41.97 19.42C42.61 18.8867 43.12 18.4433 43.5 18.09C43.88 17.73 44.1967 17.3567 44.45 16.97C44.7033 16.5833 44.83 16.2033 44.83 15.83C44.83 15.49 44.75 15.2233 44.59 15.03C44.43 14.8367 44.1833 14.74 43.85 14.74C43.5167 14.74 43.26 14.8533 43.08 15.08C42.9 15.3 42.8067 15.6033 42.8 15.99H41.44C41.4667 15.19 41.7033 14.5833 42.15 14.17C42.6033 13.7567 43.1767 13.55 43.87 13.55C44.63 13.55 45.2133 13.7533 45.62 14.16C46.0267 14.56 46.23 15.09 46.23 15.75C46.23 16.27 46.09 16.7667 45.81 17.24C45.53 17.7133 45.21 18.1267 44.85 18.48C44.49 18.8267 44.02 19.2467 43.44 19.74H46.39V20.9H41.45V19.86L41.97 19.42ZM47.2722 17.26C47.2722 16.1067 47.4789 15.2033 47.8922 14.55C48.3122 13.8967 49.0055 13.57 49.9722 13.57C50.9389 13.57 51.6289 13.8967 52.0422 14.55C52.4622 15.2033 52.6722 16.1067 52.6722 17.26C52.6722 18.42 52.4622 19.33 52.0422 19.99C51.6289 20.65 50.9389 20.98 49.9722 20.98C49.0055 20.98 48.3122 20.65 47.8922 19.99C47.4789 19.33 47.2722 18.42 47.2722 17.26ZM51.2922 17.26C51.2922 16.7667 51.2589 16.3533 51.1922 16.02C51.1322 15.68 51.0055 15.4033 50.8122 15.19C50.6255 14.9767 50.3455 14.87 49.9722 14.87C49.5989 14.87 49.3155 14.9767 49.1222 15.19C48.9355 15.4033 48.8089 15.68 48.7422 16.02C48.6822 16.3533 48.6522 16.7667 48.6522 17.26C48.6522 17.7667 48.6822 18.1933 48.7422 18.54C48.8022 18.88 48.9289 19.1567 49.1222 19.37C49.3155 19.5767 49.5989 19.68 49.9722 19.68C50.3455 19.68 50.6289 19.5767 50.8222 19.37C51.0155 19.1567 51.1422 18.88 51.2022 18.54C51.2622 18.1933 51.2922 17.7667 51.2922 17.26ZM55.427 19.53L54.257 22.34H53.357L54.007 19.53H55.427ZM56.2761 17.26C56.2761 16.1067 56.4828 15.2033 56.8961 14.55C57.3161 13.8967 58.0094 13.57 58.9761 13.57C59.9428 13.57 60.6328 13.8967 61.0461 14.55C61.4661 15.2033 61.6761 16.1067 61.6761 17.26C61.6761 18.42 61.4661 19.33 61.0461 19.99C60.6328 20.65 59.9428 20.98 58.9761 20.98C58.0094 20.98 57.3161 20.65 56.8961 19.99C56.4828 19.33 56.2761 18.42 56.2761 17.26ZM60.2961 17.26C60.2961 16.7667 60.2628 16.3533 60.1961 16.02C60.1361 15.68 60.0094 15.4033 59.8161 15.19C59.6294 14.9767 59.3494 14.87 58.9761 14.87C58.6028 14.87 58.3194 14.9767 58.1261 15.19C57.9394 15.4033 57.8128 15.68 57.7461 16.02C57.6861 16.3533 57.6561 16.7667 57.6561 17.26C57.6561 17.7667 57.6861 18.1933 57.7461 18.54C57.8061 18.88 57.9328 19.1567 58.1261 19.37C58.3194 19.5767 58.6028 19.68 58.9761 19.68C59.3494 19.68 59.6328 19.5767 59.8261 19.37C60.0194 19.1567 60.1461 18.88 60.2061 18.54C60.2661 18.1933 60.2961 17.7667 60.2961 17.26ZM62.7409 17.26C62.7409 16.1067 62.9476 15.2033 63.3609 14.55C63.7809 13.8967 64.4743 13.57 65.4409 13.57C66.4076 13.57 67.0976 13.8967 67.5109 14.55C67.9309 15.2033 68.1409 16.1067 68.1409 17.26C68.1409 18.42 67.9309 19.33 67.5109 19.99C67.0976 20.65 66.4076 20.98 65.4409 20.98C64.4743 20.98 63.7809 20.65 63.3609 19.99C62.9476 19.33 62.7409 18.42 62.7409 17.26ZM66.7609 17.26C66.7609 16.7667 66.7276 16.3533 66.6609 16.02C66.6009 15.68 66.4743 15.4033 66.2809 15.19C66.0943 14.9767 65.8143 14.87 65.4409 14.87C65.0676 14.87 64.7843 14.9767 64.5909 15.19C64.4043 15.4033 64.2776 15.68 64.2109 16.02C64.1509 16.3533 64.1209 16.7667 64.1209 17.26C64.1209 17.7667 64.1509 18.1933 64.2109 18.54C64.2709 18.88 64.3976 19.1567 64.5909 19.37C64.7843 19.5767 65.0676 19.68 65.4409 19.68C65.8143 19.68 66.0976 19.5767 66.2909 19.37C66.4843 19.1567 66.6109 18.88 66.6709 18.54C66.7309 18.1933 66.7609 17.7667 66.7609 17.26ZM69.2058 17.26C69.2058 16.1067 69.4124 15.2033 69.8258 14.55C70.2458 13.8967 70.9391 13.57 71.9058 13.57C72.8724 13.57 73.5624 13.8967 73.9758 14.55C74.3958 15.2033 74.6058 16.1067 74.6058 17.26C74.6058 18.42 74.3958 19.33 73.9758 19.99C73.5624 20.65 72.8724 20.98 71.9058 20.98C70.9391 20.98 70.2458 20.65 69.8258 19.99C69.4124 19.33 69.2058 18.42 69.2058 17.26ZM73.2258 17.26C73.2258 16.7667 73.1924 16.3533 73.1258 16.02C73.0658 15.68 72.9391 15.4033 72.7458 15.19C72.5591 14.9767 72.2791 14.87 71.9058 14.87C71.5324 14.87 71.2491 14.9767 71.0558 15.19C70.8691 15.4033 70.7424 15.68 70.6758 16.02C70.6158 16.3533 70.5858 16.7667 70.5858 17.26C70.5858 17.7667 70.6158 18.1933 70.6758 18.54C70.7358 18.88 70.8624 19.1567 71.0558 19.37C71.2491 19.5767 71.5324 19.68 71.9058 19.68C72.2791 19.68 72.5624 19.5767 72.7558 19.37C72.9491 19.1567 73.0758 18.88 73.1358 18.54C73.1958 18.1933 73.2258 17.7667 73.2258 17.26ZM78.2506 22.97C77.604 22.3433 77.1006 21.5433 76.7406 20.57C76.3873 19.5967 76.2106 18.5533 76.2106 17.44C76.2106 16.3 76.3973 15.23 76.7706 14.23C77.144 13.2233 77.6873 12.4 78.4006 11.76H79.8106V11.89C79.0773 12.59 78.5173 13.43 78.1306 14.41C77.7506 15.39 77.5606 16.4 77.5606 17.44C77.5606 18.4533 77.7406 19.4333 78.1006 20.38C78.4673 21.32 78.9873 22.1367 79.6606 22.83V22.97H78.2506ZM82.3141 16.61V19.29C82.3141 19.4767 82.3575 19.6133 82.4441 19.7C82.5375 19.78 82.6908 19.82 82.9041 19.82H83.5541V21H82.6741C81.4941 21 80.9041 20.4267 80.9041 19.28V16.61H80.2441V15.46H80.9041V14.09H82.3141V15.46H83.5541V16.61H82.3141ZM87.0211 21.09C86.4878 21.09 86.0078 20.9733 85.5811 20.74C85.1544 20.5 84.8178 20.1633 84.5711 19.73C84.3311 19.2967 84.2111 18.7967 84.2111 18.23C84.2111 17.6633 84.3344 17.1633 84.5811 16.73C84.8344 16.2967 85.1778 15.9633 85.6111 15.73C86.0444 15.49 86.5278 15.37 87.0611 15.37C87.5944 15.37 88.0778 15.49 88.5111 15.73C88.9444 15.9633 89.2844 16.2967 89.5311 16.73C89.7844 17.1633 89.9111 17.6633 89.9111 18.23C89.9111 18.7967 89.7811 19.2967 89.5211 19.73C89.2678 20.1633 88.9211 20.5 88.4811 20.74C88.0478 20.9733 87.5611 21.09 87.0211 21.09ZM87.0211 19.87C87.2744 19.87 87.5111 19.81 87.7311 19.69C87.9578 19.5633 88.1378 19.3767 88.2711 19.13C88.4044 18.8833 88.4711 18.5833 88.4711 18.23C88.4711 17.7033 88.3311 17.3 88.0511 17.02C87.7778 16.7333 87.4411 16.59 87.0411 16.59C86.6411 16.59 86.3044 16.7333 86.0311 17.02C85.7644 17.3 85.6311 17.7033 85.6311 18.23C85.6311 18.7567 85.7611 19.1633 86.0211 19.45C86.2878 19.73 86.6211 19.87 87.0211 19.87ZM94.008 15.38C94.668 15.38 95.2014 15.59 95.608 16.01C96.0147 16.4233 96.218 17.0033 96.218 17.75V21H94.818V17.94C94.818 17.5 94.708 17.1633 94.488 16.93C94.268 16.69 93.968 16.57 93.588 16.57C93.2014 16.57 92.8947 16.69 92.668 16.93C92.448 17.1633 92.338 17.5 92.338 17.94V21H90.938V15.46H92.338V16.15C92.5247 15.91 92.7614 15.7233 93.048 15.59C93.3414 15.45 93.6614 15.38 94.008 15.38ZM99.6694 21.09C99.216 21.09 98.8094 21.01 98.4494 20.85C98.0894 20.6833 97.8027 20.46 97.5894 20.18C97.3827 19.9 97.2694 19.59 97.2494 19.25H98.6594C98.686 19.4633 98.7894 19.64 98.9694 19.78C99.156 19.92 99.386 19.99 99.6594 19.99C99.926 19.99 100.133 19.9367 100.279 19.83C100.433 19.7233 100.509 19.5867 100.509 19.42C100.509 19.24 100.416 19.1067 100.229 19.02C100.049 18.9267 99.7594 18.8267 99.3594 18.72C98.946 18.62 98.606 18.5167 98.3394 18.41C98.0794 18.3033 97.8527 18.14 97.6594 17.92C97.4727 17.7 97.3794 17.4033 97.3794 17.03C97.3794 16.7233 97.466 16.4433 97.6394 16.19C97.8194 15.9367 98.0727 15.7367 98.3994 15.59C98.7327 15.4433 99.1227 15.37 99.5694 15.37C100.229 15.37 100.756 15.5367 101.149 15.87C101.543 16.1967 101.759 16.64 101.799 17.2H100.459C100.439 16.98 100.346 16.8067 100.179 16.68C100.019 16.5467 99.8027 16.48 99.5294 16.48C99.276 16.48 99.0794 16.5267 98.9394 16.62C98.806 16.7133 98.7394 16.8433 98.7394 17.01C98.7394 17.1967 98.8327 17.34 99.0194 17.44C99.206 17.5333 99.496 17.63 99.8894 17.73C100.289 17.83 100.619 17.9333 100.879 18.04C101.139 18.1467 101.363 18.3133 101.549 18.54C101.743 18.76 101.843 19.0533 101.849 19.42C101.849 19.74 101.759 20.0267 101.579 20.28C101.406 20.5333 101.153 20.7333 100.819 20.88C100.493 21.02 100.109 21.09 99.6694 21.09ZM107.841 21.09C107.308 21.09 106.828 20.9733 106.401 20.74C105.975 20.5 105.638 20.1633 105.391 19.73C105.151 19.2967 105.031 18.7967 105.031 18.23C105.031 17.6633 105.155 17.1633 105.401 16.73C105.655 16.2967 105.998 15.9633 106.431 15.73C106.865 15.49 107.348 15.37 107.881 15.37C108.415 15.37 108.898 15.49 109.331 15.73C109.765 15.9633 110.105 16.2967 110.351 16.73C110.605 17.1633 110.731 17.6633 110.731 18.23C110.731 18.7967 110.601 19.2967 110.341 19.73C110.088 20.1633 109.741 20.5 109.301 20.74C108.868 20.9733 108.381 21.09 107.841 21.09ZM107.841 19.87C108.095 19.87 108.331 19.81 108.551 19.69C108.778 19.5633 108.958 19.3767 109.091 19.13C109.225 18.8833 109.291 18.5833 109.291 18.23C109.291 17.7033 109.151 17.3 108.871 17.02C108.598 16.7333 108.261 16.59 107.861 16.59C107.461 16.59 107.125 16.7333 106.851 17.02C106.585 17.3 106.451 17.7033 106.451 18.23C106.451 18.7567 106.581 19.1633 106.841 19.45C107.108 19.73 107.441 19.87 107.841 19.87ZM114.298 16.61H113.328V21H111.908V16.61H111.278V15.46H111.908V15.18C111.908 14.5 112.102 14 112.488 13.68C112.875 13.36 113.458 13.21 114.238 13.23V14.41C113.898 14.4033 113.662 14.46 113.528 14.58C113.395 14.7 113.328 14.9167 113.328 15.23V15.46H114.298V16.61ZM117.228 18.23C117.228 17.6567 117.345 17.1567 117.578 16.73C117.812 16.2967 118.135 15.9633 118.548 15.73C118.962 15.49 119.435 15.37 119.968 15.37C120.655 15.37 121.222 15.5433 121.668 15.89C122.122 16.23 122.425 16.71 122.578 17.33H121.068C120.988 17.09 120.852 16.9033 120.658 16.77C120.472 16.63 120.238 16.56 119.958 16.56C119.558 16.56 119.242 16.7067 119.008 17C118.775 17.2867 118.658 17.6967 118.658 18.23C118.658 18.7567 118.775 19.1667 119.008 19.46C119.242 19.7467 119.558 19.89 119.958 19.89C120.525 19.89 120.895 19.6367 121.068 19.13H122.578C122.425 19.73 122.122 20.2067 121.668 20.56C121.215 20.9133 120.648 21.09 119.968 21.09C119.435 21.09 118.962 20.9733 118.548 20.74C118.135 20.5 117.812 20.1667 117.578 19.74C117.345 19.3067 117.228 18.8033 117.228 18.23ZM126.064 21.09C125.531 21.09 125.051 20.9733 124.624 20.74C124.197 20.5 123.861 20.1633 123.614 19.73C123.374 19.2967 123.254 18.7967 123.254 18.23C123.254 17.6633 123.377 17.1633 123.624 16.73C123.877 16.2967 124.221 15.9633 124.654 15.73C125.087 15.49 125.571 15.37 126.104 15.37C126.637 15.37 127.121 15.49 127.554 15.73C127.987 15.9633 128.327 16.2967 128.574 16.73C128.827 17.1633 128.954 17.6633 128.954 18.23C128.954 18.7967 128.824 19.2967 128.564 19.73C128.311 20.1633 127.964 20.5 127.524 20.74C127.091 20.9733 126.604 21.09 126.064 21.09ZM126.064 19.87C126.317 19.87 126.554 19.81 126.774 19.69C127.001 19.5633 127.181 19.3767 127.314 19.13C127.447 18.8833 127.514 18.5833 127.514 18.23C127.514 17.7033 127.374 17.3 127.094 17.02C126.821 16.7333 126.484 16.59 126.084 16.59C125.684 16.59 125.347 16.7333 125.074 17.02C124.807 17.3 124.674 17.7033 124.674 18.23C124.674 18.7567 124.804 19.1633 125.064 19.45C125.331 19.73 125.664 19.87 126.064 19.87ZM130.261 19.42C130.901 18.8867 131.411 18.4433 131.791 18.09C132.171 17.73 132.488 17.3567 132.741 16.97C132.994 16.5833 133.121 16.2033 133.121 15.83C133.121 15.49 133.041 15.2233 132.881 15.03C132.721 14.8367 132.474 14.74 132.141 14.74C131.808 14.74 131.551 14.8533 131.371 15.08C131.191 15.3 131.098 15.6033 131.091 15.99H129.731C129.758 15.19 129.994 14.5833 130.441 14.17C130.894 13.7567 131.468 13.55 132.161 13.55C132.921 13.55 133.504 13.7533 133.911 14.16C134.318 14.56 134.521 15.09 134.521 15.75C134.521 16.27 134.381 16.7667 134.101 17.24C133.821 17.7133 133.501 18.1267 133.141 18.48C132.781 18.8267 132.311 19.2467 131.731 19.74H134.681V20.9H129.741V19.86L130.261 19.42ZM135.363 22.97V22.83C136.037 22.1367 136.553 21.32 136.913 20.38C137.28 19.4333 137.463 18.4533 137.463 17.44C137.463 16.4 137.27 15.39 136.883 14.41C136.503 13.43 135.947 12.59 135.213 11.89V11.76H136.623C137.337 12.4 137.88 13.2233 138.253 14.23C138.627 15.23 138.813 16.3 138.813 17.44C138.813 18.5533 138.633 19.5967 138.273 20.57C137.92 21.5433 137.42 22.3433 136.773 22.97H135.363Z" fill="white"/>
</svg>
