<svg width="147" height="34" viewBox="0 0 147 34" fill="none" xmlns="http://www.w3.org/2000/svg">
<rect width="147" height="34" fill="#2E7758"/>
<path d="M24.97 19.42C25.61 18.8867 26.12 18.4433 26.5 18.09C26.88 17.73 27.1967 17.3567 27.45 16.97C27.7033 16.5833 27.83 16.2033 27.83 15.83C27.83 15.49 27.75 15.2233 27.59 15.03C27.43 14.8367 27.1833 14.74 26.85 14.74C26.5167 14.74 26.26 14.8533 26.08 15.08C25.9 15.3 25.8067 15.6033 25.8 15.99H24.44C24.4667 15.19 24.7033 14.5833 25.15 14.17C25.6033 13.7567 26.1767 13.55 26.87 13.55C27.63 13.55 28.2133 13.7533 28.62 14.16C29.0267 14.56 29.23 15.09 29.23 15.75C29.23 16.27 29.09 16.7667 28.81 17.24C28.53 17.7133 28.21 18.1267 27.85 18.48C27.49 18.8267 27.02 19.2467 26.44 19.74H29.39V20.9H24.45V19.86L24.97 19.42ZM30.2722 17.26C30.2722 16.1067 30.4789 15.2033 30.8922 14.55C31.3122 13.8967 32.0055 13.57 32.9722 13.57C33.9389 13.57 34.6289 13.8967 35.0422 14.55C35.4622 15.2033 35.6722 16.1067 35.6722 17.26C35.6722 18.42 35.4622 19.33 35.0422 19.99C34.6289 20.65 33.9389 20.98 32.9722 20.98C32.0055 20.98 31.3122 20.65 30.8922 19.99C30.4789 19.33 30.2722 18.42 30.2722 17.26ZM34.2922 17.26C34.2922 16.7667 34.2589 16.3533 34.1922 16.02C34.1322 15.68 34.0055 15.4033 33.8122 15.19C33.6255 14.9767 33.3455 14.87 32.9722 14.87C32.5989 14.87 32.3155 14.9767 32.1222 15.19C31.9355 15.4033 31.8089 15.68 31.7422 16.02C31.6822 16.3533 31.6522 16.7667 31.6522 17.26C31.6522 17.7667 31.6822 18.1933 31.7422 18.54C31.8022 18.88 31.9289 19.1567 32.1222 19.37C32.3155 19.5767 32.5989 19.68 32.9722 19.68C33.3455 19.68 33.6289 19.5767 33.8222 19.37C34.0155 19.1567 34.1422 18.88 34.2022 18.54C34.2622 18.1933 34.2922 17.7667 34.2922 17.26ZM38.427 19.53L37.257 22.34H36.357L37.007 19.53H38.427ZM39.2761 17.26C39.2761 16.1067 39.4828 15.2033 39.8961 14.55C40.3161 13.8967 41.0094 13.57 41.9761 13.57C42.9428 13.57 43.6328 13.8967 44.0461 14.55C44.4661 15.2033 44.6761 16.1067 44.6761 17.26C44.6761 18.42 44.4661 19.33 44.0461 19.99C43.6328 20.65 42.9428 20.98 41.9761 20.98C41.0094 20.98 40.3161 20.65 39.8961 19.99C39.4828 19.33 39.2761 18.42 39.2761 17.26ZM43.2961 17.26C43.2961 16.7667 43.2628 16.3533 43.1961 16.02C43.1361 15.68 43.0094 15.4033 42.8161 15.19C42.6294 14.9767 42.3494 14.87 41.9761 14.87C41.6028 14.87 41.3194 14.9767 41.1261 15.19C40.9394 15.4033 40.8128 15.68 40.7461 16.02C40.6861 16.3533 40.6561 16.7667 40.6561 17.26C40.6561 17.7667 40.6861 18.1933 40.7461 18.54C40.8061 18.88 40.9328 19.1567 41.1261 19.37C41.3194 19.5767 41.6028 19.68 41.9761 19.68C42.3494 19.68 42.6328 19.5767 42.8261 19.37C43.0194 19.1567 43.1461 18.88 43.2061 18.54C43.2661 18.1933 43.2961 17.7667 43.2961 17.26ZM45.7409 17.26C45.7409 16.1067 45.9476 15.2033 46.3609 14.55C46.7809 13.8967 47.4743 13.57 48.4409 13.57C49.4076 13.57 50.0976 13.8967 50.5109 14.55C50.9309 15.2033 51.1409 16.1067 51.1409 17.26C51.1409 18.42 50.9309 19.33 50.5109 19.99C50.0976 20.65 49.4076 20.98 48.4409 20.98C47.4743 20.98 46.7809 20.65 46.3609 19.99C45.9476 19.33 45.7409 18.42 45.7409 17.26ZM49.7609 17.26C49.7609 16.7667 49.7276 16.3533 49.6609 16.02C49.6009 15.68 49.4743 15.4033 49.2809 15.19C49.0943 14.9767 48.8143 14.87 48.4409 14.87C48.0676 14.87 47.7843 14.9767 47.5909 15.19C47.4043 15.4033 47.2776 15.68 47.2109 16.02C47.1509 16.3533 47.1209 16.7667 47.1209 17.26C47.1209 17.7667 47.1509 18.1933 47.2109 18.54C47.2709 18.88 47.3976 19.1567 47.5909 19.37C47.7843 19.5767 48.0676 19.68 48.4409 19.68C48.8143 19.68 49.0976 19.5767 49.2909 19.37C49.4843 19.1567 49.6109 18.88 49.6709 18.54C49.7309 18.1933 49.7609 17.7667 49.7609 17.26ZM52.2058 17.26C52.2058 16.1067 52.4124 15.2033 52.8258 14.55C53.2458 13.8967 53.9391 13.57 54.9058 13.57C55.8724 13.57 56.5624 13.8967 56.9758 14.55C57.3958 15.2033 57.6058 16.1067 57.6058 17.26C57.6058 18.42 57.3958 19.33 56.9758 19.99C56.5624 20.65 55.8724 20.98 54.9058 20.98C53.9391 20.98 53.2458 20.65 52.8258 19.99C52.4124 19.33 52.2058 18.42 52.2058 17.26ZM56.2258 17.26C56.2258 16.7667 56.1924 16.3533 56.1258 16.02C56.0658 15.68 55.9391 15.4033 55.7458 15.19C55.5591 14.9767 55.2791 14.87 54.9058 14.87C54.5324 14.87 54.2491 14.9767 54.0558 15.19C53.8691 15.4033 53.7424 15.68 53.6758 16.02C53.6158 16.3533 53.5858 16.7667 53.5858 17.26C53.5858 17.7667 53.6158 18.1933 53.6758 18.54C53.7358 18.88 53.8624 19.1567 54.0558 19.37C54.2491 19.5767 54.5324 19.68 54.9058 19.68C55.2791 19.68 55.5624 19.5767 55.7558 19.37C55.9491 19.1567 56.0758 18.88 56.1358 18.54C56.1958 18.1933 56.2258 17.7667 56.2258 17.26ZM61.2506 22.97C60.604 22.3433 60.1006 21.5433 59.7406 20.57C59.3873 19.5967 59.2106 18.5533 59.2106 17.44C59.2106 16.3 59.3973 15.23 59.7706 14.23C60.144 13.2233 60.6873 12.4 61.4006 11.76H62.8106V11.89C62.0773 12.59 61.5173 13.43 61.1306 14.41C60.7506 15.39 60.5606 16.4 60.5606 17.44C60.5606 18.4533 60.7406 19.4333 61.1006 20.38C61.4673 21.32 61.9873 22.1367 62.6606 22.83V22.97H61.2506ZM65.3141 16.61V19.29C65.3141 19.4767 65.3575 19.6133 65.4441 19.7C65.5375 19.78 65.6908 19.82 65.9041 19.82H66.5541V21H65.6741C64.4941 21 63.9041 20.4267 63.9041 19.28V16.61H63.2441V15.46H63.9041V14.09H65.3141V15.46H66.5541V16.61H65.3141ZM70.0211 21.09C69.4878 21.09 69.0078 20.9733 68.5811 20.74C68.1544 20.5 67.8178 20.1633 67.5711 19.73C67.3311 19.2967 67.2111 18.7967 67.2111 18.23C67.2111 17.6633 67.3344 17.1633 67.5811 16.73C67.8344 16.2967 68.1778 15.9633 68.6111 15.73C69.0444 15.49 69.5278 15.37 70.0611 15.37C70.5944 15.37 71.0778 15.49 71.5111 15.73C71.9444 15.9633 72.2844 16.2967 72.5311 16.73C72.7844 17.1633 72.9111 17.6633 72.9111 18.23C72.9111 18.7967 72.7811 19.2967 72.5211 19.73C72.2678 20.1633 71.9211 20.5 71.4811 20.74C71.0478 20.9733 70.5611 21.09 70.0211 21.09ZM70.0211 19.87C70.2744 19.87 70.5111 19.81 70.7311 19.69C70.9578 19.5633 71.1378 19.3767 71.2711 19.13C71.4044 18.8833 71.4711 18.5833 71.4711 18.23C71.4711 17.7033 71.3311 17.3 71.0511 17.02C70.7778 16.7333 70.4411 16.59 70.0411 16.59C69.6411 16.59 69.3044 16.7333 69.0311 17.02C68.7644 17.3 68.6311 17.7033 68.6311 18.23C68.6311 18.7567 68.7611 19.1633 69.0211 19.45C69.2878 19.73 69.6211 19.87 70.0211 19.87ZM77.008 15.38C77.668 15.38 78.2014 15.59 78.608 16.01C79.0147 16.4233 79.218 17.0033 79.218 17.75V21H77.818V17.94C77.818 17.5 77.708 17.1633 77.488 16.93C77.268 16.69 76.968 16.57 76.588 16.57C76.2014 16.57 75.8947 16.69 75.668 16.93C75.448 17.1633 75.338 17.5 75.338 17.94V21H73.938V15.46H75.338V16.15C75.5247 15.91 75.7614 15.7233 76.048 15.59C76.3414 15.45 76.6614 15.38 77.008 15.38ZM82.6694 21.09C82.216 21.09 81.8094 21.01 81.4494 20.85C81.0894 20.6833 80.8027 20.46 80.5894 20.18C80.3827 19.9 80.2694 19.59 80.2494 19.25H81.6594C81.686 19.4633 81.7894 19.64 81.9694 19.78C82.156 19.92 82.386 19.99 82.6594 19.99C82.926 19.99 83.1327 19.9367 83.2794 19.83C83.4327 19.7233 83.5094 19.5867 83.5094 19.42C83.5094 19.24 83.416 19.1067 83.2294 19.02C83.0494 18.9267 82.7594 18.8267 82.3594 18.72C81.946 18.62 81.606 18.5167 81.3394 18.41C81.0794 18.3033 80.8527 18.14 80.6594 17.92C80.4727 17.7 80.3794 17.4033 80.3794 17.03C80.3794 16.7233 80.466 16.4433 80.6394 16.19C80.8194 15.9367 81.0727 15.7367 81.3994 15.59C81.7327 15.4433 82.1227 15.37 82.5694 15.37C83.2294 15.37 83.756 15.5367 84.1494 15.87C84.5427 16.1967 84.7594 16.64 84.7994 17.2H83.4594C83.4394 16.98 83.346 16.8067 83.1794 16.68C83.0194 16.5467 82.8027 16.48 82.5294 16.48C82.276 16.48 82.0794 16.5267 81.9394 16.62C81.806 16.7133 81.7394 16.8433 81.7394 17.01C81.7394 17.1967 81.8327 17.34 82.0194 17.44C82.206 17.5333 82.496 17.63 82.8894 17.73C83.2894 17.83 83.6194 17.9333 83.8794 18.04C84.1394 18.1467 84.3627 18.3133 84.5494 18.54C84.7427 18.76 84.8427 19.0533 84.8494 19.42C84.8494 19.74 84.7594 20.0267 84.5794 20.28C84.406 20.5333 84.1527 20.7333 83.8194 20.88C83.4927 21.02 83.1094 21.09 82.6694 21.09ZM90.8414 21.09C90.3081 21.09 89.8281 20.9733 89.4014 20.74C88.9747 20.5 88.6381 20.1633 88.3914 19.73C88.1514 19.2967 88.0314 18.7967 88.0314 18.23C88.0314 17.6633 88.1547 17.1633 88.4014 16.73C88.6547 16.2967 88.9981 15.9633 89.4314 15.73C89.8647 15.49 90.3481 15.37 90.8814 15.37C91.4147 15.37 91.8981 15.49 92.3314 15.73C92.7647 15.9633 93.1047 16.2967 93.3514 16.73C93.6047 17.1633 93.7314 17.6633 93.7314 18.23C93.7314 18.7967 93.6014 19.2967 93.3414 19.73C93.0881 20.1633 92.7414 20.5 92.3014 20.74C91.8681 20.9733 91.3814 21.09 90.8414 21.09ZM90.8414 19.87C91.0947 19.87 91.3314 19.81 91.5514 19.69C91.7781 19.5633 91.9581 19.3767 92.0914 19.13C92.2247 18.8833 92.2914 18.5833 92.2914 18.23C92.2914 17.7033 92.1514 17.3 91.8714 17.02C91.5981 16.7333 91.2614 16.59 90.8614 16.59C90.4614 16.59 90.1247 16.7333 89.8514 17.02C89.5847 17.3 89.4514 17.7033 89.4514 18.23C89.4514 18.7567 89.5814 19.1633 89.8414 19.45C90.1081 19.73 90.4414 19.87 90.8414 19.87ZM97.2984 16.61H96.3284V21H94.9084V16.61H94.2784V15.46H94.9084V15.18C94.9084 14.5 95.1017 14 95.4884 13.68C95.875 13.36 96.4584 13.21 97.2384 13.23V14.41C96.8984 14.4033 96.6617 14.46 96.5284 14.58C96.395 14.7 96.3284 14.9167 96.3284 15.23V15.46H97.2984V16.61ZM100.228 18.23C100.228 17.6567 100.345 17.1567 100.578 16.73C100.812 16.2967 101.135 15.9633 101.548 15.73C101.962 15.49 102.435 15.37 102.968 15.37C103.655 15.37 104.222 15.5433 104.668 15.89C105.122 16.23 105.425 16.71 105.578 17.33H104.068C103.988 17.09 103.852 16.9033 103.658 16.77C103.472 16.63 103.238 16.56 102.958 16.56C102.558 16.56 102.242 16.7067 102.008 17C101.775 17.2867 101.658 17.6967 101.658 18.23C101.658 18.7567 101.775 19.1667 102.008 19.46C102.242 19.7467 102.558 19.89 102.958 19.89C103.525 19.89 103.895 19.6367 104.068 19.13H105.578C105.425 19.73 105.122 20.2067 104.668 20.56C104.215 20.9133 103.648 21.09 102.968 21.09C102.435 21.09 101.962 20.9733 101.548 20.74C101.135 20.5 100.812 20.1667 100.578 19.74C100.345 19.3067 100.228 18.8033 100.228 18.23ZM109.064 21.09C108.531 21.09 108.051 20.9733 107.624 20.74C107.197 20.5 106.861 20.1633 106.614 19.73C106.374 19.2967 106.254 18.7967 106.254 18.23C106.254 17.6633 106.377 17.1633 106.624 16.73C106.877 16.2967 107.221 15.9633 107.654 15.73C108.087 15.49 108.571 15.37 109.104 15.37C109.637 15.37 110.121 15.49 110.554 15.73C110.987 15.9633 111.327 16.2967 111.574 16.73C111.827 17.1633 111.954 17.6633 111.954 18.23C111.954 18.7967 111.824 19.2967 111.564 19.73C111.311 20.1633 110.964 20.5 110.524 20.74C110.091 20.9733 109.604 21.09 109.064 21.09ZM109.064 19.87C109.317 19.87 109.554 19.81 109.774 19.69C110.001 19.5633 110.181 19.3767 110.314 19.13C110.447 18.8833 110.514 18.5833 110.514 18.23C110.514 17.7033 110.374 17.3 110.094 17.02C109.821 16.7333 109.484 16.59 109.084 16.59C108.684 16.59 108.347 16.7333 108.074 17.02C107.807 17.3 107.674 17.7033 107.674 18.23C107.674 18.7567 107.804 19.1633 108.064 19.45C108.331 19.73 108.664 19.87 109.064 19.87ZM113.261 19.42C113.901 18.8867 114.411 18.4433 114.791 18.09C115.171 17.73 115.488 17.3567 115.741 16.97C115.994 16.5833 116.121 16.2033 116.121 15.83C116.121 15.49 116.041 15.2233 115.881 15.03C115.721 14.8367 115.474 14.74 115.141 14.74C114.808 14.74 114.551 14.8533 114.371 15.08C114.191 15.3 114.098 15.6033 114.091 15.99H112.731C112.758 15.19 112.994 14.5833 113.441 14.17C113.894 13.7567 114.468 13.55 115.161 13.55C115.921 13.55 116.504 13.7533 116.911 14.16C117.318 14.56 117.521 15.09 117.521 15.75C117.521 16.27 117.381 16.7667 117.101 17.24C116.821 17.7133 116.501 18.1267 116.141 18.48C115.781 18.8267 115.311 19.2467 114.731 19.74H117.681V20.9H112.741V19.86L113.261 19.42ZM118.363 22.97V22.83C119.037 22.1367 119.553 21.32 119.913 20.38C120.28 19.4333 120.463 18.4533 120.463 17.44C120.463 16.4 120.27 15.39 119.883 14.41C119.503 13.43 118.947 12.59 118.213 11.89V11.76H119.623C120.337 12.4 120.88 13.2233 121.253 14.23C121.627 15.23 121.813 16.3 121.813 17.44C121.813 18.5533 121.633 19.5967 121.273 20.57C120.92 21.5433 120.42 22.3433 119.773 22.97H118.363Z" fill="white"/>
</svg>
