<svg width="219" height="34" viewBox="0 0 219 34" fill="none" xmlns="http://www.w3.org/2000/svg">
<rect width="219" height="34" fill="#52BF90"/>
<path d="M60.97 19.42C61.61 18.8867 62.12 18.4433 62.5 18.09C62.88 17.73 63.1967 17.3567 63.45 16.97C63.7033 16.5833 63.83 16.2033 63.83 15.83C63.83 15.49 63.75 15.2233 63.59 15.03C63.43 14.8367 63.1833 14.74 62.85 14.74C62.5167 14.74 62.26 14.8533 62.08 15.08C61.9 15.3 61.8067 15.6033 61.8 15.99H60.44C60.4667 15.19 60.7033 14.5833 61.15 14.17C61.6033 13.7567 62.1767 13.55 62.87 13.55C63.63 13.55 64.2133 13.7533 64.62 14.16C65.0267 14.56 65.23 15.09 65.23 15.75C65.23 16.27 65.09 16.7667 64.81 17.24C64.53 17.7133 64.21 18.1267 63.85 18.48C63.49 18.8267 63.02 19.2467 62.44 19.74H65.39V20.9H60.45V19.86L60.97 19.42ZM66.2722 17.26C66.2722 16.1067 66.4789 15.2033 66.8922 14.55C67.3122 13.8967 68.0055 13.57 68.9722 13.57C69.9389 13.57 70.6289 13.8967 71.0422 14.55C71.4622 15.2033 71.6722 16.1067 71.6722 17.26C71.6722 18.42 71.4622 19.33 71.0422 19.99C70.6289 20.65 69.9389 20.98 68.9722 20.98C68.0055 20.98 67.3122 20.65 66.8922 19.99C66.4789 19.33 66.2722 18.42 66.2722 17.26ZM70.2922 17.26C70.2922 16.7667 70.2589 16.3533 70.1922 16.02C70.1322 15.68 70.0055 15.4033 69.8122 15.19C69.6255 14.9767 69.3455 14.87 68.9722 14.87C68.5989 14.87 68.3155 14.9767 68.1222 15.19C67.9355 15.4033 67.8089 15.68 67.7422 16.02C67.6822 16.3533 67.6522 16.7667 67.6522 17.26C67.6522 17.7667 67.6822 18.1933 67.7422 18.54C67.8022 18.88 67.9289 19.1567 68.1222 19.37C68.3155 19.5767 68.5989 19.68 68.9722 19.68C69.3455 19.68 69.6289 19.5767 69.8222 19.37C70.0155 19.1567 70.1422 18.88 70.2022 18.54C70.2622 18.1933 70.2922 17.7667 70.2922 17.26ZM74.427 19.53L73.257 22.34H72.357L73.007 19.53H74.427ZM75.2761 17.26C75.2761 16.1067 75.4828 15.2033 75.8961 14.55C76.3161 13.8967 77.0094 13.57 77.9761 13.57C78.9428 13.57 79.6328 13.8967 80.0461 14.55C80.4661 15.2033 80.6761 16.1067 80.6761 17.26C80.6761 18.42 80.4661 19.33 80.0461 19.99C79.6328 20.65 78.9428 20.98 77.9761 20.98C77.0094 20.98 76.3161 20.65 75.8961 19.99C75.4828 19.33 75.2761 18.42 75.2761 17.26ZM79.2961 17.26C79.2961 16.7667 79.2628 16.3533 79.1961 16.02C79.1361 15.68 79.0094 15.4033 78.8161 15.19C78.6294 14.9767 78.3494 14.87 77.9761 14.87C77.6028 14.87 77.3194 14.9767 77.1261 15.19C76.9394 15.4033 76.8128 15.68 76.7461 16.02C76.6861 16.3533 76.6561 16.7667 76.6561 17.26C76.6561 17.7667 76.6861 18.1933 76.7461 18.54C76.8061 18.88 76.9328 19.1567 77.1261 19.37C77.3194 19.5767 77.6028 19.68 77.9761 19.68C78.3494 19.68 78.6328 19.5767 78.8261 19.37C79.0194 19.1567 79.1461 18.88 79.2061 18.54C79.2661 18.1933 79.2961 17.7667 79.2961 17.26ZM81.7409 17.26C81.7409 16.1067 81.9476 15.2033 82.3609 14.55C82.7809 13.8967 83.4743 13.57 84.4409 13.57C85.4076 13.57 86.0976 13.8967 86.5109 14.55C86.9309 15.2033 87.1409 16.1067 87.1409 17.26C87.1409 18.42 86.9309 19.33 86.5109 19.99C86.0976 20.65 85.4076 20.98 84.4409 20.98C83.4743 20.98 82.7809 20.65 82.3609 19.99C81.9476 19.33 81.7409 18.42 81.7409 17.26ZM85.7609 17.26C85.7609 16.7667 85.7276 16.3533 85.6609 16.02C85.6009 15.68 85.4743 15.4033 85.2809 15.19C85.0943 14.9767 84.8143 14.87 84.4409 14.87C84.0676 14.87 83.7843 14.9767 83.5909 15.19C83.4043 15.4033 83.2776 15.68 83.2109 16.02C83.1509 16.3533 83.1209 16.7667 83.1209 17.26C83.1209 17.7667 83.1509 18.1933 83.2109 18.54C83.2709 18.88 83.3976 19.1567 83.5909 19.37C83.7843 19.5767 84.0676 19.68 84.4409 19.68C84.8143 19.68 85.0976 19.5767 85.2909 19.37C85.4843 19.1567 85.6109 18.88 85.6709 18.54C85.7309 18.1933 85.7609 17.7667 85.7609 17.26ZM88.2058 17.26C88.2058 16.1067 88.4124 15.2033 88.8258 14.55C89.2458 13.8967 89.9391 13.57 90.9058 13.57C91.8724 13.57 92.5624 13.8967 92.9758 14.55C93.3958 15.2033 93.6058 16.1067 93.6058 17.26C93.6058 18.42 93.3958 19.33 92.9758 19.99C92.5624 20.65 91.8724 20.98 90.9058 20.98C89.9391 20.98 89.2458 20.65 88.8258 19.99C88.4124 19.33 88.2058 18.42 88.2058 17.26ZM92.2258 17.26C92.2258 16.7667 92.1924 16.3533 92.1258 16.02C92.0658 15.68 91.9391 15.4033 91.7458 15.19C91.5591 14.9767 91.2791 14.87 90.9058 14.87C90.5324 14.87 90.2491 14.9767 90.0558 15.19C89.8691 15.4033 89.7424 15.68 89.6758 16.02C89.6158 16.3533 89.5858 16.7667 89.5858 17.26C89.5858 17.7667 89.6158 18.1933 89.6758 18.54C89.7358 18.88 89.8624 19.1567 90.0558 19.37C90.2491 19.5767 90.5324 19.68 90.9058 19.68C91.2791 19.68 91.5624 19.5767 91.7558 19.37C91.9491 19.1567 92.0758 18.88 92.1358 18.54C92.1958 18.1933 92.2258 17.7667 92.2258 17.26ZM97.2506 22.97C96.604 22.3433 96.1006 21.5433 95.7406 20.57C95.3873 19.5967 95.2106 18.5533 95.2106 17.44C95.2106 16.3 95.3973 15.23 95.7706 14.23C96.144 13.2233 96.6873 12.4 97.4006 11.76H98.8106V11.89C98.0773 12.59 97.5173 13.43 97.1306 14.41C96.7506 15.39 96.5606 16.4 96.5606 17.44C96.5606 18.4533 96.7406 19.4333 97.1006 20.38C97.4673 21.32 97.9873 22.1367 98.6606 22.83V22.97H97.2506ZM101.314 16.61V19.29C101.314 19.4767 101.357 19.6133 101.444 19.7C101.537 19.78 101.691 19.82 101.904 19.82H102.554V21H101.674C100.494 21 99.9041 20.4267 99.9041 19.28V16.61H99.2441V15.46H99.9041V14.09H101.314V15.46H102.554V16.61H101.314ZM106.021 21.09C105.488 21.09 105.008 20.9733 104.581 20.74C104.154 20.5 103.818 20.1633 103.571 19.73C103.331 19.2967 103.211 18.7967 103.211 18.23C103.211 17.6633 103.334 17.1633 103.581 16.73C103.834 16.2967 104.178 15.9633 104.611 15.73C105.044 15.49 105.528 15.37 106.061 15.37C106.594 15.37 107.078 15.49 107.511 15.73C107.944 15.9633 108.284 16.2967 108.531 16.73C108.784 17.1633 108.911 17.6633 108.911 18.23C108.911 18.7967 108.781 19.2967 108.521 19.73C108.268 20.1633 107.921 20.5 107.481 20.74C107.048 20.9733 106.561 21.09 106.021 21.09ZM106.021 19.87C106.274 19.87 106.511 19.81 106.731 19.69C106.958 19.5633 107.138 19.3767 107.271 19.13C107.404 18.8833 107.471 18.5833 107.471 18.23C107.471 17.7033 107.331 17.3 107.051 17.02C106.778 16.7333 106.441 16.59 106.041 16.59C105.641 16.59 105.304 16.7333 105.031 17.02C104.764 17.3 104.631 17.7033 104.631 18.23C104.631 18.7567 104.761 19.1633 105.021 19.45C105.288 19.73 105.621 19.87 106.021 19.87ZM113.008 15.38C113.668 15.38 114.201 15.59 114.608 16.01C115.015 16.4233 115.218 17.0033 115.218 17.75V21H113.818V17.94C113.818 17.5 113.708 17.1633 113.488 16.93C113.268 16.69 112.968 16.57 112.588 16.57C112.201 16.57 111.895 16.69 111.668 16.93C111.448 17.1633 111.338 17.5 111.338 17.94V21H109.938V15.46H111.338V16.15C111.525 15.91 111.761 15.7233 112.048 15.59C112.341 15.45 112.661 15.38 113.008 15.38ZM118.669 21.09C118.216 21.09 117.809 21.01 117.449 20.85C117.089 20.6833 116.803 20.46 116.589 20.18C116.383 19.9 116.269 19.59 116.249 19.25H117.659C117.686 19.4633 117.789 19.64 117.969 19.78C118.156 19.92 118.386 19.99 118.659 19.99C118.926 19.99 119.133 19.9367 119.279 19.83C119.433 19.7233 119.509 19.5867 119.509 19.42C119.509 19.24 119.416 19.1067 119.229 19.02C119.049 18.9267 118.759 18.8267 118.359 18.72C117.946 18.62 117.606 18.5167 117.339 18.41C117.079 18.3033 116.853 18.14 116.659 17.92C116.473 17.7 116.379 17.4033 116.379 17.03C116.379 16.7233 116.466 16.4433 116.639 16.19C116.819 15.9367 117.073 15.7367 117.399 15.59C117.733 15.4433 118.123 15.37 118.569 15.37C119.229 15.37 119.756 15.5367 120.149 15.87C120.543 16.1967 120.759 16.64 120.799 17.2H119.459C119.439 16.98 119.346 16.8067 119.179 16.68C119.019 16.5467 118.803 16.48 118.529 16.48C118.276 16.48 118.079 16.5267 117.939 16.62C117.806 16.7133 117.739 16.8433 117.739 17.01C117.739 17.1967 117.833 17.34 118.019 17.44C118.206 17.5333 118.496 17.63 118.889 17.73C119.289 17.83 119.619 17.9333 119.879 18.04C120.139 18.1467 120.363 18.3133 120.549 18.54C120.743 18.76 120.843 19.0533 120.849 19.42C120.849 19.74 120.759 20.0267 120.579 20.28C120.406 20.5333 120.153 20.7333 119.819 20.88C119.493 21.02 119.109 21.09 118.669 21.09ZM126.841 21.09C126.308 21.09 125.828 20.9733 125.401 20.74C124.975 20.5 124.638 20.1633 124.391 19.73C124.151 19.2967 124.031 18.7967 124.031 18.23C124.031 17.6633 124.155 17.1633 124.401 16.73C124.655 16.2967 124.998 15.9633 125.431 15.73C125.865 15.49 126.348 15.37 126.881 15.37C127.415 15.37 127.898 15.49 128.331 15.73C128.765 15.9633 129.105 16.2967 129.351 16.73C129.605 17.1633 129.731 17.6633 129.731 18.23C129.731 18.7967 129.601 19.2967 129.341 19.73C129.088 20.1633 128.741 20.5 128.301 20.74C127.868 20.9733 127.381 21.09 126.841 21.09ZM126.841 19.87C127.095 19.87 127.331 19.81 127.551 19.69C127.778 19.5633 127.958 19.3767 128.091 19.13C128.225 18.8833 128.291 18.5833 128.291 18.23C128.291 17.7033 128.151 17.3 127.871 17.02C127.598 16.7333 127.261 16.59 126.861 16.59C126.461 16.59 126.125 16.7333 125.851 17.02C125.585 17.3 125.451 17.7033 125.451 18.23C125.451 18.7567 125.581 19.1633 125.841 19.45C126.108 19.73 126.441 19.87 126.841 19.87ZM133.298 16.61H132.328V21H130.908V16.61H130.278V15.46H130.908V15.18C130.908 14.5 131.102 14 131.488 13.68C131.875 13.36 132.458 13.21 133.238 13.23V14.41C132.898 14.4033 132.662 14.46 132.528 14.58C132.395 14.7 132.328 14.9167 132.328 15.23V15.46H133.298V16.61ZM136.228 18.23C136.228 17.6567 136.345 17.1567 136.578 16.73C136.812 16.2967 137.135 15.9633 137.548 15.73C137.962 15.49 138.435 15.37 138.968 15.37C139.655 15.37 140.222 15.5433 140.668 15.89C141.122 16.23 141.425 16.71 141.578 17.33H140.068C139.988 17.09 139.852 16.9033 139.658 16.77C139.472 16.63 139.238 16.56 138.958 16.56C138.558 16.56 138.242 16.7067 138.008 17C137.775 17.2867 137.658 17.6967 137.658 18.23C137.658 18.7567 137.775 19.1667 138.008 19.46C138.242 19.7467 138.558 19.89 138.958 19.89C139.525 19.89 139.895 19.6367 140.068 19.13H141.578C141.425 19.73 141.122 20.2067 140.668 20.56C140.215 20.9133 139.648 21.09 138.968 21.09C138.435 21.09 137.962 20.9733 137.548 20.74C137.135 20.5 136.812 20.1667 136.578 19.74C136.345 19.3067 136.228 18.8033 136.228 18.23ZM145.064 21.09C144.531 21.09 144.051 20.9733 143.624 20.74C143.197 20.5 142.861 20.1633 142.614 19.73C142.374 19.2967 142.254 18.7967 142.254 18.23C142.254 17.6633 142.377 17.1633 142.624 16.73C142.877 16.2967 143.221 15.9633 143.654 15.73C144.087 15.49 144.571 15.37 145.104 15.37C145.637 15.37 146.121 15.49 146.554 15.73C146.987 15.9633 147.327 16.2967 147.574 16.73C147.827 17.1633 147.954 17.6633 147.954 18.23C147.954 18.7967 147.824 19.2967 147.564 19.73C147.311 20.1633 146.964 20.5 146.524 20.74C146.091 20.9733 145.604 21.09 145.064 21.09ZM145.064 19.87C145.317 19.87 145.554 19.81 145.774 19.69C146.001 19.5633 146.181 19.3767 146.314 19.13C146.447 18.8833 146.514 18.5833 146.514 18.23C146.514 17.7033 146.374 17.3 146.094 17.02C145.821 16.7333 145.484 16.59 145.084 16.59C144.684 16.59 144.347 16.7333 144.074 17.02C143.807 17.3 143.674 17.7033 143.674 18.23C143.674 18.7567 143.804 19.1633 144.064 19.45C144.331 19.73 144.664 19.87 145.064 19.87ZM149.261 19.42C149.901 18.8867 150.411 18.4433 150.791 18.09C151.171 17.73 151.488 17.3567 151.741 16.97C151.994 16.5833 152.121 16.2033 152.121 15.83C152.121 15.49 152.041 15.2233 151.881 15.03C151.721 14.8367 151.474 14.74 151.141 14.74C150.808 14.74 150.551 14.8533 150.371 15.08C150.191 15.3 150.098 15.6033 150.091 15.99H148.731C148.758 15.19 148.994 14.5833 149.441 14.17C149.894 13.7567 150.468 13.55 151.161 13.55C151.921 13.55 152.504 13.7533 152.911 14.16C153.318 14.56 153.521 15.09 153.521 15.75C153.521 16.27 153.381 16.7667 153.101 17.24C152.821 17.7133 152.501 18.1267 152.141 18.48C151.781 18.8267 151.311 19.2467 150.731 19.74H153.681V20.9H148.741V19.86L149.261 19.42ZM154.363 22.97V22.83C155.037 22.1367 155.553 21.32 155.913 20.38C156.28 19.4333 156.463 18.4533 156.463 17.44C156.463 16.4 156.27 15.39 155.883 14.41C155.503 13.43 154.947 12.59 154.213 11.89V11.76H155.623C156.337 12.4 156.88 13.2233 157.253 14.23C157.627 15.23 157.813 16.3 157.813 17.44C157.813 18.5533 157.633 19.5967 157.273 20.57C156.92 21.5433 156.42 22.3433 155.773 22.97H154.363Z" fill="white"/>
</svg>
