<svg width="24" height="24" viewBox="0 0 24 24" fill="none" xmlns="http://www.w3.org/2000/svg">
<g clip-path="url(#clip0_135_175)">
<path d="M12.001 12.821L20.443 4.436C21.03 3.853 21.981 3.856 22.564 4.443C23.148 5.031 23.144 5.981 22.556 6.565L14.115 14.95C13.407 15.654 12.475 16.006 11.543 16.006C10.611 16.006 9.68598 15.656 8.97698 14.957L6.50198 12.51C5.91298 11.928 5.90698 10.978 6.48998 10.389C7.07198 9.8 8.02298 9.794 8.61098 10.377L11.085 12.823C11.337 13.072 11.749 13.072 12.001 12.821ZM22.5 10.5C21.672 10.5 21 11.171 21 12C21 12.076 20.979 12.188 20.882 12.285L18.44 14.727C18.159 15.008 18.001 15.39 18.001 15.788V17.5C18.001 17.775 17.776 18 17.501 18H15.789C15.392 18 15.01 18.158 14.728 18.439L12.286 20.881C12.128 21.037 11.874 21.037 11.716 20.881L9.27398 18.439C8.99298 18.158 8.61098 18 8.21298 18H6.50098C6.22598 18 6.00098 17.775 6.00098 17.5V15.788C6.00098 15.391 5.84298 15.009 5.56198 14.727L3.11998 12.285C3.02198 12.187 3.00198 12.076 3.00198 12C3.00198 11.924 3.02298 11.813 3.11998 11.715L5.56198 9.272C5.84298 8.991 6.00098 8.609 6.00098 8.211V6.499C6.00098 6.223 6.22598 5.999 6.50098 5.999H8.21298C8.60998 5.999 8.99198 5.841 9.27398 5.56L11.716 3.118C11.874 2.961 12.128 2.961 12.286 3.118L14.728 5.56C15.314 6.146 16.263 6.146 16.849 5.56C17.435 4.975 17.435 4.024 16.849 3.439L14.407 0.996997C13.081 -0.330003 10.921 -0.330003 9.59498 0.996997L7.59198 3H6.50098C4.57098 3 3.00098 4.57 3.00098 6.5V7.591L0.997977 9.594C0.354977 10.237 0.000976562 11.091 0.000976562 12C0.000976562 12.909 0.354977 13.764 0.997977 14.406L3.00098 16.409V17.5C3.00098 19.43 4.57098 21 6.50098 21H7.59198L9.59498 23.003C10.258 23.666 11.13 23.998 12.001 23.998C12.872 23.998 13.744 23.666 14.407 23.003L16.41 21H17.501C19.431 21 21.001 19.43 21.001 17.5V16.409L23.003 14.407C23.647 13.764 24.001 12.909 24.001 12C24.001 11.171 23.328 10.5 22.5 10.5Z" fill="#474747"/>
</g>
<defs>
<clipPath id="clip0_135_175">
<rect width="24" height="24" fill="white"/>
</clipPath>
</defs>
</svg>
