<svg width="66" height="16" viewBox="0 0 66 16" fill="none" xmlns="http://www.w3.org/2000/svg">
<rect y="1" width="66" height="14.1176" rx="7.05882" fill="#52BF90" fill-opacity="0.3"/>
<path d="M28.8264 5.03L26.1964 12H25.1464L22.5164 5.03H23.4864L25.6764 11.04L27.8664 5.03H28.8264ZM34.8242 9.05C34.8242 9.22333 34.8142 9.40667 34.7942 9.6H30.4142C30.4475 10.14 30.6309 10.5633 30.9642 10.87C31.3042 11.17 31.7142 11.32 32.1942 11.32C32.5875 11.32 32.9142 11.23 33.1742 11.05C33.4409 10.8633 33.6275 10.6167 33.7342 10.31H34.7142C34.5675 10.8367 34.2742 11.2667 33.8342 11.6C33.3942 11.9267 32.8475 12.09 32.1942 12.09C31.6742 12.09 31.2075 11.9733 30.7942 11.74C30.3875 11.5067 30.0675 11.1767 29.8342 10.75C29.6009 10.3167 29.4842 9.81667 29.4842 9.25C29.4842 8.68333 29.5975 8.18667 29.8242 7.76C30.0509 7.33333 30.3675 7.00667 30.7742 6.78C31.1875 6.54667 31.6609 6.43 32.1942 6.43C32.7142 6.43 33.1742 6.54333 33.5742 6.77C33.9742 6.99667 34.2809 7.31 34.4942 7.71C34.7142 8.10333 34.8242 8.55 34.8242 9.05ZM33.8842 8.86C33.8842 8.51333 33.8075 8.21667 33.6542 7.97C33.5009 7.71667 33.2909 7.52667 33.0242 7.4C32.7642 7.26667 32.4742 7.2 32.1542 7.2C31.6942 7.2 31.3009 7.34667 30.9742 7.64C30.6542 7.93333 30.4709 8.34 30.4242 8.86H33.8842ZM36.9354 7.41C37.0954 7.09667 37.322 6.85333 37.6154 6.68C37.9154 6.50667 38.2787 6.42 38.7054 6.42V7.36H38.4654C37.4454 7.36 36.9354 7.91333 36.9354 9.02V12H36.0254V6.52H36.9354V7.41ZM40.2258 5.63C40.0525 5.63 39.9058 5.57 39.7858 5.45C39.6658 5.33 39.6058 5.18333 39.6058 5.01C39.6058 4.83667 39.6658 4.69 39.7858 4.57C39.9058 4.45 40.0525 4.39 40.2258 4.39C40.3925 4.39 40.5325 4.45 40.6458 4.57C40.7658 4.69 40.8258 4.83667 40.8258 5.01C40.8258 5.18333 40.7658 5.33 40.6458 5.45C40.5325 5.57 40.3925 5.63 40.2258 5.63ZM40.6658 6.52V12H39.7558V6.52H40.6658ZM44.4468 7.27H43.2968V12H42.3868V7.27H41.6768V6.52H42.3868V6.13C42.3868 5.51667 42.5434 5.07 42.8568 4.79C43.1768 4.50333 43.6868 4.36 44.3868 4.36V5.12C43.9868 5.12 43.7034 5.2 43.5368 5.36C43.3768 5.51333 43.2968 5.77 43.2968 6.13V6.52H44.4468V7.27ZM45.9778 5.63C45.8045 5.63 45.6578 5.57 45.5378 5.45C45.4178 5.33 45.3578 5.18333 45.3578 5.01C45.3578 4.83667 45.4178 4.69 45.5378 4.57C45.6578 4.45 45.8045 4.39 45.9778 4.39C46.1445 4.39 46.2845 4.45 46.3978 4.57C46.5178 4.69 46.5778 4.83667 46.5778 5.01C46.5778 5.18333 46.5178 5.33 46.3978 5.45C46.2845 5.57 46.1445 5.63 45.9778 5.63ZM46.4178 6.52V12H45.5078V6.52H46.4178ZM52.9687 9.05C52.9687 9.22333 52.9587 9.40667 52.9387 9.6H48.5587C48.5921 10.14 48.7754 10.5633 49.1087 10.87C49.4487 11.17 49.8587 11.32 50.3387 11.32C50.7321 11.32 51.0587 11.23 51.3187 11.05C51.5854 10.8633 51.7721 10.6167 51.8787 10.31H52.8587C52.7121 10.8367 52.4187 11.2667 51.9787 11.6C51.5387 11.9267 50.9921 12.09 50.3387 12.09C49.8187 12.09 49.3521 11.9733 48.9387 11.74C48.5321 11.5067 48.2121 11.1767 47.9787 10.75C47.7454 10.3167 47.6287 9.81667 47.6287 9.25C47.6287 8.68333 47.7421 8.18667 47.9687 7.76C48.1954 7.33333 48.5121 7.00667 48.9187 6.78C49.3321 6.54667 49.8054 6.43 50.3387 6.43C50.8587 6.43 51.3187 6.54333 51.7187 6.77C52.1187 6.99667 52.4254 7.31 52.6387 7.71C52.8587 8.10333 52.9687 8.55 52.9687 9.05ZM52.0287 8.86C52.0287 8.51333 51.9521 8.21667 51.7987 7.97C51.6454 7.71667 51.4354 7.52667 51.1687 7.4C50.9087 7.26667 50.6187 7.2 50.2987 7.2C49.8387 7.2 49.4454 7.34667 49.1187 7.64C48.7987 7.93333 48.6154 8.34 48.5687 8.86H52.0287ZM53.8299 9.24C53.8299 8.68 53.9432 8.19 54.1699 7.77C54.3966 7.34333 54.7066 7.01333 55.0999 6.78C55.4999 6.54667 55.9466 6.43 56.4399 6.43C56.8666 6.43 57.2632 6.53 57.6299 6.73C57.9966 6.92333 58.2766 7.18 58.4699 7.5V4.6H59.3899V12H58.4699V10.97C58.2899 11.2967 58.0232 11.5667 57.6699 11.78C57.3166 11.9867 56.9032 12.09 56.4299 12.09C55.9432 12.09 55.4999 11.97 55.0999 11.73C54.7066 11.49 54.3966 11.1533 54.1699 10.72C53.9432 10.2867 53.8299 9.79333 53.8299 9.24ZM58.4699 9.25C58.4699 8.83667 58.3866 8.47667 58.2199 8.17C58.0532 7.86333 57.8266 7.63 57.5399 7.47C57.2599 7.30333 56.9499 7.22 56.6099 7.22C56.2699 7.22 55.9599 7.3 55.6799 7.46C55.3999 7.62 55.1766 7.85333 55.0099 8.16C54.8432 8.46667 54.7599 8.82667 54.7599 9.24C54.7599 9.66 54.8432 10.0267 55.0099 10.34C55.1766 10.6467 55.3999 10.8833 55.6799 11.05C55.9599 11.21 56.2699 11.29 56.6099 11.29C56.9499 11.29 57.2599 11.21 57.5399 11.05C57.8266 10.8833 58.0532 10.6467 58.2199 10.34C58.3866 10.0267 58.4699 9.66333 58.4699 9.25Z" fill="#2E7758"/>
<path fill-rule="evenodd" clip-rule="evenodd" d="M16.2789 3.762C16.1869 3.61509 16.0515 3.5005 15.8913 3.43418C15.7312 3.36787 15.5544 3.35312 15.3855 3.392L14.1869 3.66733C14.064 3.69556 13.9364 3.69556 13.8135 3.66733L12.6149 3.392C12.446 3.35312 12.2692 3.36787 12.109 3.43418C11.9489 3.5005 11.8135 3.61509 11.7215 3.762L11.0682 4.80466C11.0015 4.91133 10.9115 5.00133 10.8049 5.06866L9.7622 5.722C9.61554 5.81386 9.50112 5.94909 9.43482 6.10894C9.36852 6.26878 9.35362 6.4453 9.3922 6.614L9.66753 7.814C9.69566 7.93663 9.69566 8.06403 9.66753 8.18666L9.3922 9.386C9.35347 9.55479 9.36829 9.73145 9.4346 9.89143C9.50091 10.0514 9.61542 10.1868 9.7622 10.2787L10.8049 10.932C10.9115 10.9987 11.0015 11.0887 11.0689 11.1953L11.7222 12.238C11.9102 12.5387 12.2689 12.6873 12.6149 12.608L13.8135 12.3327C13.9364 12.3044 14.064 12.3044 14.1869 12.3327L15.3862 12.608C15.555 12.6467 15.7317 12.6319 15.8916 12.5656C16.0516 12.4993 16.187 12.3848 16.2789 12.238L16.9322 11.1953C16.9989 11.0887 17.0889 10.9987 17.1955 10.932L18.2389 10.2787C18.3857 10.1866 18.5001 10.0511 18.5663 9.89102C18.6325 9.73091 18.6471 9.55415 18.6082 9.38533L18.3335 8.18666C18.3053 8.06382 18.3053 7.93617 18.3335 7.81333L18.6089 6.614C18.6477 6.44527 18.6329 6.26866 18.5667 6.10868C18.5006 5.94871 18.3862 5.81332 18.2395 5.72133L17.1962 5.068C17.0897 5.00121 16.9997 4.91118 16.9329 4.80466L16.2789 3.762ZM15.9435 6.51333C15.9848 6.43751 15.995 6.34865 15.972 6.26544C15.9491 6.18224 15.8948 6.11119 15.8205 6.06722C15.7462 6.02326 15.6578 6.00983 15.5738 6.02974C15.4898 6.04965 15.4168 6.10137 15.3702 6.174L13.6269 9.12466L12.5742 8.11666C12.543 8.0846 12.5056 8.05915 12.4643 8.04184C12.423 8.02453 12.3787 8.0157 12.3339 8.0159C12.2892 8.01609 12.2449 8.0253 12.2038 8.04297C12.1627 8.06064 12.1255 8.08642 12.0946 8.11875C12.0636 8.15109 12.0395 8.18933 12.0237 8.23119C12.0078 8.27305 12.0006 8.31767 12.0023 8.3624C12.0041 8.40712 12.0149 8.45103 12.034 8.49151C12.0531 8.53199 12.0801 8.5682 12.1135 8.598L13.4695 9.89733C13.5058 9.93203 13.5495 9.95809 13.5973 9.97355C13.645 9.98901 13.6957 9.99348 13.7454 9.98662C13.7952 9.97976 13.8427 9.96175 13.8845 9.93394C13.9263 9.90612 13.9613 9.86923 13.9869 9.826L15.9435 6.51333Z" fill="#2E7758"/>
</svg>
