<svg width="24" height="24" viewBox="0 0 24 24" fill="none" xmlns="http://www.w3.org/2000/svg">
<g clip-path="url(#clip0_12_327)">
<path d="M20.5 6H5.5C4.711 6 3.97 5.624 3.5 5.001C3.957 4.394 4.684 4 5.5 4H22.5C24.472 3.966 24.471 1.033 22.5 1H5.5C2.468 1 0 3.467 0 6.5V17.5C0 20.533 2.468 23 5.5 23H20.5C22.43 23 24 21.43 24 19.5V9.5C24 7.57 22.43 6 20.5 6ZM21 19.5C21 19.776 20.775 20 20.5 20H5.5C4.121 20 3 18.878 3 17.5V8.396C3.763 8.786 4.618 9 5.5 9H20.5C20.775 9 21 9.224 21 9.5V19.5ZM19 14.5C18.966 16.472 16.033 16.471 16 14.5C16.034 12.528 18.967 12.529 19 14.5Z" fill="#999999"/>
</g>
<defs>
<clipPath id="clip0_12_327">
<rect width="24" height="24" fill="white"/>
</clipPath>
</defs>
</svg>
